<?xml version="1.0" standalone="no"?>
<!DOCTYPE svg PUBLIC "-//W3C//DTD SVG 20010904//EN"
 "http://www.w3.org/TR/2001/REC-SVG-20010904/DTD/svg10.dtd">
<svg version="1.0" xmlns="http://www.w3.org/2000/svg"
 width="260.000000pt" height="260.000000pt" viewBox="0 0 260.000000 260.000000"
 preserveAspectRatio="xMidYMid meet">
<metadata>
Created by potrace 1.11, written by Peter Selinger 2001-2013
</metadata>
<g transform="translate(0.000000,260.000000) scale(0.100000,-0.100000)"
fill="#000000" stroke="none">
<path d="M1798 2354 c-102 -24 -176 -89 -158 -139 9 -25 9 -26 -36 -205 -20
-80 -37 -149 -38 -155 -1 -5 -5 -16 -9 -22 -5 -7 -6 -13 -3 -13 3 0 -6 -31
-19 -70 -13 -38 -21 -70 -18 -70 3 0 0 -7 -7 -15 -7 -8 -9 -15 -6 -15 4 0 2
-9 -4 -21 -6 -11 -13 -30 -15 -42 -3 -12 -11 -38 -19 -57 -8 -19 -35 -95 -61
-167 -26 -73 -51 -133 -54 -133 -13 0 -115 228 -220 490 -60 151 -123 307
-141 345 -17 39 -42 93 -54 120 -13 28 -27 63 -32 80 -17 55 -105 75 -194 45
-71 -24 -97 -53 -121 -132 -25 -81 -30 -194 -13 -308 19 -133 26 -223 29 -395
5 -217 14 -471 20 -580 12 -204 14 -409 4 -421 -6 -7 -11 -27 -11 -45 -1 -25
7 -40 40 -71 26 -24 52 -38 69 -39 15 -1 35 -2 43 -3 18 -2 85 19 118 36 13 7
31 26 39 42 17 33 18 59 8 301 -11 291 -14 375 -20 545 -3 91 -8 171 -10 178
-2 6 -1 12 3 12 8 0 42 -69 42 -84 0 -4 30 -67 66 -139 37 -73 80 -159 97
-192 50 -99 108 -284 97 -305 -17 -32 -11 -55 21 -74 49 -29 133 -19 218 25
59 30 80 58 79 104 0 22 5 52 11 68 15 38 46 173 56 242 8 60 78 278 94 297
10 12 12 -22 15 -432 2 -212 6 -396 9 -410 3 -14 8 -36 11 -50 3 -14 8 -42 10
-64 3 -21 7 -40 10 -43 3 -3 -4 -21 -14 -40 -34 -64 6 -103 100 -98 82 5 155
47 187 109 22 42 19 211 -3 248 -11 17 -17 116 -15 228 5 249 4 489 -2 565
-22 267 -22 284 -17 600 2 101 -2 161 -14 215 -9 41 -13 89 -10 106 10 56 -48
73 -158 48z"/>
</g>
</svg>
